<!-- <svg xmlns="http://www.w3.org/2000/svg" viewBox="0 0 24 24">
  
    <path fill="currentColor"
        d="M9.153 5.408C10.42 3.136 11.053 2 12 2s1.58 1.136 2.847 3.408l.328.588c.36.646.54.969.82 1.182s.63.292 1.33.45l.636.144c2.46.557 3.689.835 3.982 1.776c.292.94-.546 1.921-2.223 3.882l-.434.507c-.476.557-.715.836-.822 1.18c-.107.345-.071.717.001 1.46l.066.677c.253 2.617.38 3.925-.386 4.506s-1.918.051-4.22-1.009l-.597-.274c-.654-.302-.981-.452-1.328-.452s-.674.15-1.328.452l-.596.274c-2.303 1.06-3.455 1.59-4.22 1.01c-.767-.582-.64-1.89-.387-4.507l.066-.676c.072-.744.108-1.116 0-1.46c-.106-.345-.345-.624-.821-1.18l-.434-.508c-1.677-1.96-2.515-2.941-2.223-3.882S3.58 8.328 6.04 7.772l.636-.144c.699-.158 1.048-.237 1.329-.45s.46-.536.82-1.182z" />
</svg> -->


<svg xmlns="http://www.w3.org/2000/svg" viewBox="0 0 24 24">
    <!-- Icon from Material Symbols by Google - https://github.com/google/material-design-icons/blob/master/LICENSE -->
    <path fill="currentColor"
        d="m8.85 16.825l3.15-1.9l3.15 1.925l-.825-3.6l2.775-2.4l-3.65-.325l-1.45-3.4l-1.45 3.375l-3.65.325l2.775 2.425zm3.15.45l-4.15 2.5q-.275.175-.575.15t-.525-.2t-.35-.437t-.05-.588l1.1-4.725L3.775 10.8q-.25-.225-.312-.513t.037-.562t.3-.45t.55-.225l4.85-.425l1.875-4.45q.125-.3.388-.45t.537-.15t.537.15t.388.45l1.875 4.45l4.85.425q.35.05.55.225t.3.45t.038.563t-.313.512l-3.675 3.175l1.1 4.725q.075.325-.05.588t-.35.437t-.525.2t-.575-.15zm0-5.025" />
</svg>