<svg xmlns="http://www.w3.org/2000/svg" viewBox="0 0 24 24">
    <path fill="currentColor"
        d="M22.02 11.16a2 2 0 0 0-.57-.67l-1.33-1a.4.4 0 0 1-.14-.2.4.4 0 0 1 0-.25l.55-1.63a2 2 0 0 0 .06-.9 2 2 0 0 0-.36-.84 2 2 0 0 0-.7-.57 2 2 0 0 0-.85-.17h-1.5a.4.4 0 0 1-.39-.3l-.43-1.5a2 2 0 0 0-.46-.8 2 2 0 0 0-.78-.5 2 2 0 0 0-.92-.06 2 2 0 0 0-.83.4l-1.14.9a.4.4 0 0 1-.23.08.4.4 0 0 1-.22-.05l-1.13-.9a2 2 0 0 0-.8-.38 2 2 0 0 0-.88 0 2 2 0 0 0-.78.43 2 2 0 0 0-.51.8l-.43 1.5a.4.4 0 0 1-.15.22.4.4 0 0 1-.27.07H5.41a2 2 0 0 0-.89.18 2 2 0 0 0-.71.57 2 2 0 0 0-.36.83q-.07.45.06.88L4 9a.4.4 0 0 1-.14.44l-1.33 1a2 2 0 0 0-.58.68 2 2 0 0 0 0 1.71 2 2 0 0 0 .58.68l1.33 1a.4.4 0 0 1 .14.45l-.55 1.63a2 2 0 0 0-.07.91q.07.45.36.82a1.8 1.8 0 0 0 1.56.75h1.49a.4.4 0 0 1 .25.08.3.3 0 0 1 .14.21l.43 1.51a2 2 0 0 0 .46.8 1.9 1.9 0 0 0 2.54.17l1.15-.9a.4.4 0 0 1 .49 0l1.13.9q.37.3.84.38.17.02.34 0a2 2 0 0 0 .58-.09 1.9 1.9 0 0 0 1.24-1.28l.44-1.52a.3.3 0 0 1 .14-.2.4.4 0 0 1 .27-.09h1.43a2 2 0 0 0 .89-.17 1.9 1.9 0 0 0 1.06-1.4 2 2 0 0 0-.07-.92L20 14.93a.4.4 0 0 1 0-.25.4.4 0 0 1 .14-.2l1.33-1a2 2 0 0 0 .57-.68 2 2 0 0 0 .21-.86 2 2 0 0 0-.23-.78m-5.44-.76-4.42 4.42a2 2 0 0 1-.59.4 2 2 0 0 1-.7.14 2 2 0 0 1-.71-.15 2 2 0 0 1-.6-.4l-2.18-2.19a1 1 0 0 1 1.41-1.4l2.08 2.07 4.3-4.3a1 1 0 0 1 1.41 0 1 1 0 0 1 0 1.45z" />
</svg>